<svg width="33" height="33" viewBox="0 0 33 33" fill="none" xmlns="http://www.w3.org/2000/svg">
<path d="M15.6673 2.30829C16.2596 1.28238 17.7404 1.28238 18.3327 2.30829L29.9567 22.4417C30.549 23.4676 29.8087 24.75 28.624 24.75H5.37596C4.19135 24.75 3.45097 23.4676 4.04327 22.4417L15.6673 2.30829Z" fill="white"/>
<path d="M14.0517 13.5076L10.8005 13.5076L8.3212 11.0284C7.92056 10.6277 7.27099 10.6277 6.87035 11.0284L3.57764 14.3211C3.17699 14.7217 3.177 15.3713 3.57764 15.7719L6.87035 19.0646C7.27099 19.4653 7.92055 19.4653 8.3212 19.0646L10.9715 16.4144H14.0517L16.0595 18.4222L16.0595 21.075L13.3238 23.8107C12.9231 24.2113 12.9231 24.8609 13.3237 25.2616L16.702 28.6398C17.1026 29.0404 17.7522 29.0404 18.1528 28.6398L21.531 25.2616C21.9316 24.8609 21.9316 24.2114 21.531 23.8107L18.7953 21.075V18.4222L21.4455 15.7719C21.8462 15.3713 21.8462 14.7217 21.4455 14.3211L18.0673 10.9429C17.6667 10.5422 17.0171 10.5422 16.6165 10.9429L14.0517 13.5076Z"
 fill="#00F0FF" stroke="#0E151F" stroke-width="1.02591"/>
<rect x="5.45361" y="5.64258" width="3.76166" height="3.76166" rx="0.512953" transform="rotate(45 5.45361 5.64258)" fill="#00F0FF"/>
</svg>
